
<svg version="1.0" xmlns="http://www.w3.org/2000/svg"
 width="64.000000pt" height="64.000000pt" viewBox="0 0 64.000000 64.000000"
 preserveAspectRatio="xMidYMid meet">

<g transform="translate(0.000000,64.000000) scale(0.100000,-0.100000)"
fill="#EE82EE" filter="drop-shadow(0 0 50px #000)" stroke="none">
<path d="M250 571 c-71 -23 -131 -74 -166 -141 -27 -51 -26 -172 3 -225 11
-22 30 -48 41 -58 19 -17 21 -17 66 5 54 26 57 42 21 96 -24 36 -24 42 -16
111 11 86 34 117 97 131 66 16 92 13 100 -12 4 -13 13 -28 21 -33 8 -6 18 -42
24 -85 8 -70 8 -76 -16 -112 -36 -54 -33 -70 21 -96 45 -22 47 -22 66 -5 11
10 30 36 41 58 29 53 30 174 3 225 -26 49 -74 98 -121 122 -43 22 -144 33
-185 19z"/>
<path d="M244 398 c-2 -4 -8 -28 -13 -54 -10 -52 -2 -72 48 -126 31 -35 51
-35 82 0 50 55 58 75 48 123 -6 24 -14 48 -19 53 -11 11 -140 14 -146 4z"/>
<path d="M270 142 c0 -36 3 -42 25 -48 14 -3 36 -3 50 0 22 6 25 12 25 48 0
33 -3 39 -12 30 -15 -15 -61 -15 -76 0 -9 9 -12 3 -12 -30z"/>
</g>
</svg>
