<?xml version="1.0" standalone="no"?>
<!DOCTYPE svg PUBLIC "-//W3C//DTD SVG 20010904//EN"
 "http://www.w3.org/TR/2001/REC-SVG-20010904/DTD/svg10.dtd">
<svg version="1.0" xmlns="http://www.w3.org/2000/svg"
 width="60.000000pt" height="60.000000pt" viewBox="0 0 60.000000 60.000000"
 preserveAspectRatio="xMidYMid meet">

<g transform="translate(0.000000,60.000000) scale(0.100000,-0.100000)"
fill="#00FFFF" stroke="none">
<path d="M321 520 c-62 -10 -119 -21 -127 -24 -10 -4 -14 -40 -16 -158 l-3
-153 -44 -6 c-68 -9 -92 -58 -50 -100 17 -17 29 -20 63 -16 69 10 76 27 76
188 0 76 1 139 3 139 1 1 51 9 110 19 l108 18 -3 -101 -3 -101 -44 -6 c-68 -9
-92 -58 -50 -100 17 -17 29 -20 63 -16 73 10 77 21 74 241 -3 223 14 204 -157
176z"/>
</g>
</svg>
