<?xml version="1.0" encoding="UTF-8"?>
<svg fill="#00FFFF" width="700pt" height="700pt" version="1.1" viewBox="0 0 700 700" xmlns="http://www.w3.org/2000/svg">
 <g>
  <path d="m145.83 70v5.832h408.33l0.003907-5.832c0.011719-17.023-6.7461-33.352-18.781-45.387-12.035-12.035-28.363-18.793-45.387-18.781h-280c-17.023-0.011719-33.352 6.7461-45.387 18.781-12.035 12.035-18.793 28.363-18.781 45.387z"/>
  <path d="m332.5 408.33c0 22.555-18.281 40.836-40.832 40.836-22.555 0-40.836-18.281-40.836-40.836 0-22.551 18.281-40.832 40.836-40.832 22.551 0 40.832 18.281 40.832 40.832"/>
  <path d="m560 99.168h-420c-17.016 0.011719-33.328 6.7773-45.359 18.805-12.031 12.031-18.797 28.348-18.809 45.359v326.67c0.011719 17.016 6.7773 33.328 18.809 45.359s28.344 18.797 45.359 18.809h420c17.016-0.011719 33.328-6.7773 45.359-18.809s18.797-28.344 18.809-45.359v-326.67c-0.011719-17.012-6.7773-33.328-18.809-45.359-12.031-12.027-28.344-18.793-45.359-18.805zm-114.1 121c-2.6992 3.7734-6.7852 6.3242-11.359 7.0859-4.5781 0.75781-9.2695-0.32812-13.047-3.0234-16.297-10.34-34.785-16.73-53.992-18.668v191.1c-0.10938 1.3242-0.375 2.6328-0.79297 3.8945 0.40625 2.5742 0.67188 5.168 0.79297 7.7695 0 20.113-7.9883 39.402-22.211 53.625-14.223 14.219-33.512 22.211-53.621 22.211-20.113 0-39.402-7.9922-53.625-22.211-14.219-14.223-22.211-33.512-22.211-53.625 0-20.109 7.9922-39.398 22.211-53.621 14.223-14.223 33.512-22.211 53.625-22.211 14.496 0.023438 28.676 4.2344 40.832 12.133v-157.96c0-4.6445 1.8438-9.0938 5.125-12.375s7.7344-5.125 12.375-5.125c32.461 0.36328 64.211 9.5586 91.84 26.598 3.7773 2.6953 6.332 6.7852 7.0938 11.363 0.76172 4.5781-0.33203 9.2695-3.0352 13.043z"/>
 </g>
</svg>
