<?xml version="1.0" encoding="iso-8859-1"?>
<svg fill="#00ffff" version="1.1" id="Capa_1" xmlns="http://www.w3.org/2000/svg" xmlns:xlink="http://www.w3.org/1999/xlink" x="0px" y="0px"
	 viewBox="0 0 402.232 402.232" style="enable-background:new 0 0 402.232 402.232;" xml:space="preserve">
<path id="XMLID_239_" d="M387.982,55.058c-8.765-4.619-19.36-4.004-27.54,1.582L233.299,143.67V78.664
	c0-9.894-5.485-18.99-14.25-23.605c-8.756-4.635-19.36-4.018-27.539,1.568L10.397,180.59C3.918,185.021,0.032,192.363,0,200.228
	c-0.022,7.848,3.824,15.219,10.281,19.699L191.379,345.49c8.163,5.664,18.799,6.326,27.601,1.723
	c8.803-4.617,14.319-13.727,14.319-23.668v-66.1l127.012,88.06c8.165,5.664,18.799,6.326,27.602,1.707
	c8.803-4.602,14.32-13.711,14.32-23.652V78.679C402.232,68.783,396.745,59.689,387.982,55.058z"/>
<g>
</g>
<g>
</g>
<g>
</g>
<g>
</g>
<g>
</g>
<g>
</g>
<g>
</g>
<g>
</g>
<g>
</g>
<g>
</g>
<g>
</g>
<g>
</g>
<g>
</g>
<g>
</g>
<g>
</g>
</svg>
