<?xml version="1.0" standalone="no"?>
<!DOCTYPE svg PUBLIC "-//W3C//DTD SVG 20010904//EN"
        "http://www.w3.org/TR/2001/REC-SVG-20010904/DTD/svg10.dtd">
<svg fill="#333366" version="1.0" xmlns="http://www.w3.org/2000/svg"
     width="128.000000pt" height="128.000000pt" viewBox="0 0 128.000000 128.000000"
     preserveAspectRatio="xMidYMid meet">

    <g transform="translate(0.000000,128.000000) scale(0.100000,-0.100000)"
        stroke="none">
        <path fill="#00FFFF" d="M627 1274 c-4 -4 -7 -70 -7 -146 0 -131 -1 -138 -20 -138 -18 0 -20
8 -22 113 -2 92 -6 112 -18 112 -12 0 -16 -21 -18 -115 -3 -108 -8 -129 -34
-130 -5 0 -8 32 -8 70 0 56 -3 70 -15 70 -12 0 -15 -16 -15 -80 0 -69 -3 -81
-20 -90 -19 -10 -19 -6 -22 102 -3 98 -5 113 -20 116 -16 3 -18 -8 -18 -128 0
-108 -3 -135 -17 -158 l-18 -26 -5 74 c-4 58 -8 75 -20 75 -12 0 -16 -24 -22
-130 -4 -71 -11 -151 -16 -177 -5 -29 -5 -67 0 -95 5 -27 12 -106 16 -178 6
-106 10 -130 22 -130 13 0 15 20 13 130 0 72 -4 167 -8 212 -6 74 -5 87 17
135 35 75 79 122 150 158 107 53 199 38 280 -47 126 -132 126 -334 0 -466 -95
-99 -219 -103 -339 -11 -18 14 -38 22 -43 19 -6 -4 -10 -66 -10 -151 0 -133 1
-145 18 -142 15 3 17 18 20 116 3 108 3 112 22 102 17 -9 20 -21 20 -90 0 -64
3 -80 15 -80 12 0 15 14 15 70 0 39 3 70 8 70 26 -1 31 -22 34 -130 2 -94 6
-115 18 -115 12 0 16 20 18 113 2 103 4 112 22 112 18 0 20 -9 22 -142 3 -119
5 -143 18 -143 13 0 15 24 18 143 2 133 4 142 22 142 18 0 20 -9 22 -112 2
-93 6 -113 18 -113 12 0 16 21 18 115 3 108 8 129 35 130 4 0 7 -31 7 -70 0
-56 3 -70 15 -70 12 0 15 16 15 80 0 69 3 81 20 90 19 10 19 6 22 -102 3 -98
5 -113 21 -116 15 -3 17 8 17 128 0 116 2 135 20 157 l19 25 3 -74 c2 -57 6
-73 18 -73 12 0 16 23 21 120 3 66 11 146 18 177 9 46 9 70 0 115 -7 32 -15
112 -18 178 -5 97 -9 120 -21 120 -12 0 -16 -16 -18 -73 l-3 -74 -19 25 c-18
22 -20 41 -20 157 0 120 -2 131 -17 128 -16 -3 -18 -18 -21 -116 -3 -108 -3
-112 -22 -102 -17 9 -20 21 -20 90 0 64 -3 80 -15 80 -12 0 -15 -14 -15 -70 0
-38 -3 -70 -7 -70 -27 1 -32 22 -35 130 -2 94 -6 115 -18 115 -12 0 -16 -20
-18 -112 -2 -104 -4 -113 -22 -113 -18 0 -20 9 -22 142 -3 132 -10 163 -31
142z"/>
        <path  d="M242 921 c-9 -6 -12 -74 -10 -282 3 -252 4 -274 21 -277 16 -3 17 15
17 277 0 154 -4 282 -8 285 -4 2 -13 1 -20 -3z"/>
        <path  d="M1017 923 c-4 -3 -7 -132 -7 -285 0 -271 0 -278 20 -278 20 0 20 7
20 274 0 217 -3 276 -13 285 -8 6 -17 8 -20 4z"/>
        <path fill="#EE82EE" d="M757 844 c-4 -4 -7 -21 -7 -39 0 -30 -3 -32 -67 -54 -38 -12 -74 -25
-80 -28 -7 -2 -13 2 -13 10 0 8 24 21 61 32 34 10 63 24 66 31 12 31 -10 32
-85 6 l-77 -27 -3 -96 c-3 -93 -3 -96 -25 -92 -36 7 -77 -32 -77 -72 0 -67 79
-95 123 -43 13 16 17 39 17 112 l0 92 68 24 c37 13 73 25 80 28 8 3 12 -8 12
-36 0 -37 -2 -39 -26 -34 -35 6 -74 -31 -74 -73 0 -41 27 -65 73 -65 60 0 68
23 65 185 -3 129 -10 160 -31 139z m-17 -239 c18 -21 5 -47 -22 -43 -26 3 -37
36 -16 49 18 12 24 11 38 -6z m-196 -79 c9 -13 7 -20 -7 -31 -25 -18 -47 -8
-47 20 0 37 34 44 54 11z"/>
        <path d="M80 640 c0 -164 2 -200 14 -200 23 0 26 24 26 200 0 176 -3 200 -26
200 -12 0 -14 -36 -14 -200z"/>
        <path d="M1166 824 c-3 -9 -6 -91 -6 -184 0 -176 3 -200 26 -200 12 0 14 36
14 200 0 164 -2 200 -14 200 -8 0 -17 -7 -20 -16z"/>
        <path d="M160 640 c0 -136 2 -160 15 -160 13 0 15 24 15 160 0 136 -2 160 -15
160 -13 0 -15 -24 -15 -160z"/>
        <path  d="M1090 640 c0 -136 2 -160 15 -160 13 0 15 24 15 160 0 136 -2 160
-15 160 -13 0 -15 -24 -15 -160z"/>
        <path  d="M4 707 c-3 -8 -4 -43 -2 -78 2 -49 7 -64 18 -64 12 0 15 15 15 74 0
51 -4 76 -12 78 -7 3 -15 -2 -19 -10z"/>
        <path  d="M1244 707 c-3 -8 -4 -43 -2 -78 2 -49 7 -64 18 -64 12 0 15 15 15 74
0 51 -4 76 -12 78 -7 3 -15 -2 -19 -10z"/>
    </g>
</svg>
